<?xml version="1.0" standalone="no"?>
<!DOCTYPE svg PUBLIC "-//W3C//DTD SVG 20010904//EN"
 "http://www.w3.org/TR/2001/REC-SVG-20010904/DTD/svg10.dtd">
<svg version="1.0" xmlns="http://www.w3.org/2000/svg"
 width="500.000000pt" height="500.000000pt" viewBox="0 0 500.000000 500.000000"
 preserveAspectRatio="xMidYMid meet">

<g transform="translate(0.000000,500.000000) scale(0.100000,-0.100000)"
fill="#000000" stroke="none">
<path d="M1598 3645 c-80 -19 -189 -50 -242 -69 -53 -20 -203 -67 -333 -105
-339 -99 -518 -179 -639 -285 l-46 -41 -6 -246 -5 -246 24 -16 c13 -10 36 -17
52 -17 23 0 28 -4 23 -16 -38 -98 -44 -733 -8 -792 5 -6 57 -18 117 -27 108
-15 125 -23 125 -58 0 -22 38 -37 96 -37 35 0 51 6 71 26 15 15 42 28 62 31
51 7 221 -17 731 -102 749 -124 1038 -165 1455 -205 116 -11 213 -20 218 -20
4 0 14 -18 23 -40 9 -21 23 -41 32 -44 87 -24 125 -14 199 54 70 64 126 100
306 197 78 42 198 109 267 149 90 52 139 74 175 80 65 9 74 14 156 90 41 37
86 68 108 75 l38 11 9 207 c11 246 12 492 2 544 -6 31 -4 37 11 37 51 0 74 82
73 255 -1 145 -15 254 -34 267 -7 4 -56 22 -110 38 -443 139 -1010 227 -1828
285 -210 15 -945 56 -965 54 -5 -1 -76 -16 -157 -34z"/>
</g>
</svg>
